<mxfile>
    <diagram id="IEuYAkNAgAzP6BBP492i" name="ページ1">
        <mxGraphModel dx="1455" dy="1058" grid="1" gridSize="10" guides="1" tooltips="1" connect="1" arrows="1" fold="1" page="1" pageScale="1" pageWidth="1169" pageHeight="1654" math="0" shadow="0">
            <root>
                <mxCell id="0"/>
                <mxCell id="1" parent="0"/>
                <mxCell id="6" value="" style="group;dashed=1;strokeColor=#f0f0f0;" vertex="1" connectable="0" parent="1">
                    <mxGeometry x="80" y="40" width="1020" height="320" as="geometry"/>
                </mxCell>
                <mxCell id="2" value="" style="rounded=0;whiteSpace=wrap;html=1;" vertex="1" parent="6">
                    <mxGeometry width="1020.0000000000002" height="320" as="geometry"/>
                </mxCell>
                <mxCell id="5" value="エンティティ" style="text;html=1;strokeColor=none;fillColor=none;align=center;verticalAlign=middle;whiteSpace=wrap;rounded=0;" vertex="1" parent="6">
                    <mxGeometry x="680" y="16" width="340" height="22.857142857142854" as="geometry"/>
                </mxCell>
                <mxCell id="8" value="" style="group" vertex="1" connectable="0" parent="1">
                    <mxGeometry x="79" y="440" width="1021" height="360" as="geometry"/>
                </mxCell>
                <mxCell id="9" value="" style="rounded=0;whiteSpace=wrap;html=1;dashed=1;" vertex="1" parent="8">
                    <mxGeometry width="1020.9999999999999" height="360.00000000000006" as="geometry"/>
                </mxCell>
                <mxCell id="10" value="ユースケース" style="text;html=1;strokeColor=none;fillColor=none;align=center;verticalAlign=middle;whiteSpace=wrap;rounded=0;" vertex="1" parent="8">
                    <mxGeometry x="680.6666666666666" y="18" width="340.3333333333333" height="25.71428571428572" as="geometry"/>
                </mxCell>
                <mxCell id="11" value="" style="group" vertex="1" connectable="0" parent="1">
                    <mxGeometry x="79" y="860" width="281" height="340" as="geometry"/>
                </mxCell>
                <mxCell id="12" value="" style="rounded=0;whiteSpace=wrap;html=1;dashed=1;" vertex="1" parent="11">
                    <mxGeometry width="281" height="340" as="geometry"/>
                </mxCell>
                <mxCell id="13" value="ゲートウェイ" style="text;html=1;strokeColor=none;fillColor=none;align=center;verticalAlign=middle;whiteSpace=wrap;rounded=0;" vertex="1" parent="11">
                    <mxGeometry x="187.33333333333334" y="17" width="93.66666666666667" height="24.28571428571429" as="geometry"/>
                </mxCell>
                <mxCell id="14" value="" style="group" vertex="1" connectable="0" parent="1">
                    <mxGeometry x="444" y="860" width="281" height="340" as="geometry"/>
                </mxCell>
                <mxCell id="15" value="" style="rounded=0;whiteSpace=wrap;html=1;dashed=1;" vertex="1" parent="14">
                    <mxGeometry width="281" height="340" as="geometry"/>
                </mxCell>
                <mxCell id="16" value="コントローラー" style="text;html=1;strokeColor=none;fillColor=none;align=center;verticalAlign=middle;whiteSpace=wrap;rounded=0;" vertex="1" parent="14">
                    <mxGeometry x="187.33333333333334" y="17" width="93.66666666666667" height="24.28571428571429" as="geometry"/>
                </mxCell>
                <mxCell id="17" value="" style="group" vertex="1" connectable="0" parent="1">
                    <mxGeometry x="810" y="860" width="281" height="340" as="geometry"/>
                </mxCell>
                <mxCell id="18" value="" style="rounded=0;whiteSpace=wrap;html=1;dashed=1;" vertex="1" parent="17">
                    <mxGeometry width="281" height="340" as="geometry"/>
                </mxCell>
                <mxCell id="19" value="プレゼンター" style="text;html=1;strokeColor=none;fillColor=none;align=center;verticalAlign=middle;whiteSpace=wrap;rounded=0;" vertex="1" parent="17">
                    <mxGeometry x="187.33333333333334" y="17" width="93.66666666666667" height="24.28571428571429" as="geometry"/>
                </mxCell>
                <mxCell id="26" value="" style="group" vertex="1" connectable="0" parent="1">
                    <mxGeometry x="650" y="1280" width="440" height="320" as="geometry"/>
                </mxCell>
                <mxCell id="27" value="" style="rounded=0;whiteSpace=wrap;html=1;dashed=1;" vertex="1" parent="26">
                    <mxGeometry width="440" height="320" as="geometry"/>
                </mxCell>
                <mxCell id="28" value="データ永続化" style="text;html=1;strokeColor=none;fillColor=none;align=center;verticalAlign=middle;whiteSpace=wrap;rounded=0;" vertex="1" parent="26">
                    <mxGeometry x="293.33333333333337" y="16" width="146.66666666666669" height="22.85714285714286" as="geometry"/>
                </mxCell>
                <mxCell id="31" value="" style="group" vertex="1" connectable="0" parent="1">
                    <mxGeometry x="80" y="1400" width="440" height="200" as="geometry"/>
                </mxCell>
                <mxCell id="32" value="" style="rounded=0;whiteSpace=wrap;html=1;dashed=1;" vertex="1" parent="31">
                    <mxGeometry y="-120" width="440" height="320" as="geometry"/>
                </mxCell>
                <mxCell id="33" value="UI" style="text;html=1;strokeColor=none;fillColor=none;align=center;verticalAlign=middle;whiteSpace=wrap;rounded=0;" vertex="1" parent="31">
                    <mxGeometry x="293.33333333333337" y="10" width="146.66666666666669" height="14.285714285714286" as="geometry"/>
                </mxCell>
            </root>
        </mxGraphModel>
    </diagram>
</mxfile>
